<svg id="Layer_1" data-name="Layer 1" xmlns="http://www.w3.org/2000/svg" viewBox="0 0 149.71 41.33"><defs><style>.cls-1{fill:#00aae7;}.cls-2{fill:#242628;}</style></defs><title>miracle-logo</title><polygon class="cls-1" points="110.86 37.94 114.19 37.94 114.19 36.34 110.86 36.34 110.86 34.89 114.35 34.89 114.35 33.3 108.47 33.3 108.47 41.23 114.45 41.23 114.45 39.63 110.86 39.63 110.86 37.94"/><polygon class="cls-1" points="67.98 37.94 71.31 37.94 71.31 36.34 67.98 36.34 67.98 34.89 71.47 34.89 71.47 33.3 65.58 33.3 65.58 41.23 71.57 41.23 71.57 39.63 67.98 39.63 67.98 37.94"/><polygon class="cls-1" points="87.2 35.79 85.38 33.3 82.9 33.3 86.06 37.64 86.06 41.23 88.46 41.23 88.46 37.6 91.56 33.3 89.03 33.3 87.2 35.79"/><path class="cls-1" d="M81.17,51.12a14.42,14.42,0,0,0-1.47-.77,3.43,3.43,0,0,1-.71-.42.52.52,0,0,1-.2-.41.53.53,0,0,1,.2-.42,1,1,0,0,1,.65-.17,3,3,0,0,1,1.28.27,6.54,6.54,0,0,1,1.09.62V48a3.72,3.72,0,0,0-.5-.25,5.4,5.4,0,0,0-.93-.29,5.51,5.51,0,0,0-1.23-.13,3.63,3.63,0,0,0-1.58.31,2.11,2.11,0,0,0-1.28,2,2.08,2.08,0,0,0,.31,1.15,2.73,2.73,0,0,0,.8.81,7.23,7.23,0,0,0,1.14.6,4.38,4.38,0,0,1,.9.46.65.65,0,0,1,.31.54.6.6,0,0,1-.18.38,1.08,1.08,0,0,1-.79.2,3.15,3.15,0,0,1-1.25-.25,8.73,8.73,0,0,1-1.18-.62v1.95a7.42,7.42,0,0,0,1.23.42,6.73,6.73,0,0,0,1,.18l.6,0a4,4,0,0,0,1.56-.29A2.4,2.4,0,0,0,82,54.32,2.19,2.19,0,0,0,82.34,53,1.93,1.93,0,0,0,82,51.91,2.93,2.93,0,0,0,81.17,51.12Z" transform="translate(-0.14 -14.11)"/><path class="cls-1" d="M96.81,51.12a14.25,14.25,0,0,0-1.47-.77,3.48,3.48,0,0,1-.72-.42.52.52,0,0,1-.2-.41.54.54,0,0,1,.2-.42,1,1,0,0,1,.65-.17,3,3,0,0,1,1.28.27,6.51,6.51,0,0,1,1.08.62V48a3.47,3.47,0,0,0-.5-.25,5.27,5.27,0,0,0-.93-.29A5.48,5.48,0,0,0,95,47.3a3.64,3.64,0,0,0-1.58.31,2.11,2.11,0,0,0-1.28,2,2.08,2.08,0,0,0,.31,1.15,2.73,2.73,0,0,0,.8.81,7.12,7.12,0,0,0,1.15.6,4.42,4.42,0,0,1,.9.46.64.64,0,0,1,.31.54.59.59,0,0,1-.18.38,1.08,1.08,0,0,1-.79.2,3.14,3.14,0,0,1-1.25-.25,8.67,8.67,0,0,1-1.18-.62v1.95a7.42,7.42,0,0,0,1.23.42,6.71,6.71,0,0,0,.95.18l.6,0a4,4,0,0,0,1.56-.29,2.41,2.41,0,0,0,1.06-.83A2.19,2.19,0,0,0,98,53a1.92,1.92,0,0,0-.31-1.12A2.91,2.91,0,0,0,96.81,51.12Z" transform="translate(-0.14 -14.11)"/><path class="cls-1" d="M132.67,51.91a2.93,2.93,0,0,0-.86-.79,14.58,14.58,0,0,0-1.47-.77,3.47,3.47,0,0,1-.72-.42.52.52,0,0,1-.2-.41.53.53,0,0,1,.2-.42,1,1,0,0,1,.65-.17,3,3,0,0,1,1.28.27,6.61,6.61,0,0,1,1.08.62V48a3.71,3.71,0,0,0-.5-.25,5.34,5.34,0,0,0-.93-.29A5.48,5.48,0,0,0,130,47.3a3.62,3.62,0,0,0-1.58.31,2.1,2.1,0,0,0-1.28,2,2.08,2.08,0,0,0,.31,1.15,2.71,2.71,0,0,0,.8.81,7.27,7.27,0,0,0,1.15.6,4.38,4.38,0,0,1,.9.46.65.65,0,0,1,.31.54.59.59,0,0,1-.18.38,1.08,1.08,0,0,1-.79.2,3.14,3.14,0,0,1-1.25-.25,8.5,8.5,0,0,1-1.18-.62v1.95a7.29,7.29,0,0,0,1.23.42,6.67,6.67,0,0,0,.95.18l.6,0a4,4,0,0,0,1.56-.29,2.41,2.41,0,0,0,1.06-.83A2.19,2.19,0,0,0,133,53,1.92,1.92,0,0,0,132.67,51.91Z" transform="translate(-0.14 -14.11)"/><path class="cls-1" d="M4.83,51.12a14.32,14.32,0,0,0-1.47-.77,3.51,3.51,0,0,1-.72-.42.52.52,0,0,1-.2-.41.53.53,0,0,1,.2-.42,1,1,0,0,1,.65-.17,3,3,0,0,1,1.28.27,6.45,6.45,0,0,1,1.09.62V48a3.71,3.71,0,0,0-.5-.25,5.44,5.44,0,0,0-.93-.29A5.51,5.51,0,0,0,3,47.3a3.63,3.63,0,0,0-1.58.31,2.1,2.1,0,0,0-1.28,2,2.09,2.09,0,0,0,.31,1.15,2.76,2.76,0,0,0,.81.81,7.09,7.09,0,0,0,1.15.6,4.34,4.34,0,0,1,.9.46.65.65,0,0,1,.31.54.59.59,0,0,1-.18.38,1.07,1.07,0,0,1-.79.2,3.12,3.12,0,0,1-1.24-.25,8.67,8.67,0,0,1-1.18-.62v1.95a7.51,7.51,0,0,0,1.23.42,6.73,6.73,0,0,0,1,.18l.6,0a4,4,0,0,0,1.56-.29,2.4,2.4,0,0,0,1.06-.83A2.18,2.18,0,0,0,6,53a1.91,1.91,0,0,0-.31-1.12A2.9,2.9,0,0,0,4.83,51.12Z" transform="translate(-0.14 -14.11)"/><polygon class="cls-1" points="98.87 35.23 101.78 35.23 101.78 41.23 104.16 41.23 104.16 35.23 107.07 35.23 107.07 33.3 98.87 33.3 98.87 35.23"/><polygon class="cls-1" points="120.66 36.27 118.22 33.3 116.05 33.3 116.05 41.23 118.38 41.23 118.38 36.63 120.54 39.3 120.73 39.3 122.89 36.63 122.89 41.23 125.28 41.23 125.28 33.3 123.11 33.3 120.66 36.27"/><polygon class="cls-1" points="24.16 35.23 27.07 35.23 27.07 41.23 29.46 41.23 29.46 35.23 32.37 35.23 32.37 33.3 24.16 33.3 24.16 35.23"/><polygon class="cls-1" points="17.47 41.23 19.86 41.23 19.86 38.02 23.15 38.02 23.15 36.42 19.86 36.42 19.86 34.89 23.15 34.89 23.15 33.3 17.47 33.3 17.47 41.23"/><path class="cls-1" d="M15,48.51a3.92,3.92,0,0,0-1.42-.88,5.52,5.52,0,0,0-2-.33,5.05,5.05,0,0,0-2.49.57,3.7,3.7,0,0,0-1.51,1.5,4.3,4.3,0,0,0,0,4,3.71,3.71,0,0,0,1.51,1.51,5,5,0,0,0,2.49.57,5.11,5.11,0,0,0,2.47-.55,3.7,3.7,0,0,0,1.53-1.48,4.2,4.2,0,0,0,.51-2,4.31,4.31,0,0,0-.29-1.56A3.74,3.74,0,0,0,15,48.51Zm-1.55,3.92a1.74,1.74,0,0,1-.7.72,2.26,2.26,0,0,1-1.12.26,2,2,0,1,1,0-4.07,2.4,2.4,0,0,1,.89.15,1.85,1.85,0,0,1,.65.42,1.75,1.75,0,0,1,.4.64,2.41,2.41,0,0,1,.13.82A2.25,2.25,0,0,1,13.44,52.42Z" transform="translate(-0.14 -14.11)"/><polygon class="cls-1" points="44.17 33.3 42.44 37.69 40.59 33.3 38.88 33.3 36.99 37.69 35.34 33.3 32.86 33.3 36.23 41.33 37.62 41.33 39.74 36.66 41.8 41.33 43.18 41.33 46.62 33.3 44.17 33.3"/><path class="cls-1" d="M49.76,47.41l-3.51,7.94H48.7l.66-1.61h3.45l.65,1.61H55.9l-3.5-7.94Zm.16,4.95,1.17-2.9,1.16,2.9Z" transform="translate(-0.14 -14.11)"/><path class="cls-1" d="M63.16,52.38a2.26,2.26,0,0,0-.63-.53,4.49,4.49,0,0,0,.58-.36,1.84,1.84,0,0,0,.49-.6,2.05,2.05,0,0,0,.23-1,2.51,2.51,0,0,0-.28-1.09,2.42,2.42,0,0,0-.91-1,3,3,0,0,0-1.61-.4H57v7.94h2.39v-3.1h.27a1.89,1.89,0,0,1,.67.1,1.34,1.34,0,0,1,.54.46,5.81,5.81,0,0,1,.62,1.13l.62,1.41h2.57l-.8-1.72A6.62,6.62,0,0,0,63.16,52.38Zm-2.1-1.73a2.59,2.59,0,0,1-1.2.19h-.51V48.93h.5a2.36,2.36,0,0,1,1.17.22.82.82,0,0,1,.36.76A.79.79,0,0,1,61.06,50.65Z" transform="translate(-0.14 -14.11)"/><path class="cls-2" d="M23.93,22.91H19a.9.9,0,0,0-.75.37c-1.8,2.2-3.62,4.4-5.41,6.61-.29.36-.43.34-.71,0-1.78-2.2-3.58-4.39-5.37-6.59A1,1,0,0,0,6,22.9H1.29c-.76,0-1,.23-1,1q0,9.64,0,19.29c0,.77.22,1,1,1H6.12c.77,0,1-.22,1-1q0-4.64,0-9.28a1,1,0,0,1,.06-.54c.17.06.24.21.34.33,1.38,1.68,2.76,3.37,4.15,5.05a.9.9,0,0,0,1.58,0c.53-.64,1.05-1.28,1.58-1.92l2.84-3.47.12,0v.52q0,4.66,0,9.33c0,.66.25.92.91.92h5.23c.6,0,.86-.27.86-.87q0-9.77,0-19.54C24.79,23.19,24.53,22.91,23.93,22.91Z" transform="translate(-0.14 -14.11)"/><path class="cls-2" d="M59.45,37A5.78,5.78,0,0,0,58,35.13c-.36-.28-.26-.42.06-.62a4.94,4.94,0,0,0,2.2-2.95,6.76,6.76,0,0,0-5-8.39,12.53,12.53,0,0,0-2.86-.27c-3.09,0-6.19,0-9.28,0-.81,0-1,.21-1,1q0,4.81,0,9.62t0,9.67c0,.74.22,1,.95,1H48.1c.66,0,.92-.26.92-.92,0-1.06,0-2.12,0-3.17s0-2.21,0-3.32c0-.23,0-.48.32-.49a2.7,2.7,0,0,1,2.41.91,10.87,10.87,0,0,1,1.43,2.38c.64,1.39,1.25,2.79,1.88,4.19.1.23.22.43.52.43,2.07,0,4.13,0,6.2,0a.66.66,0,0,0,.59-1C61.41,41.16,60.51,39.07,59.45,37ZM53,31a1.61,1.61,0,0,1-1.06.54,13.07,13.07,0,0,1-2.52.14c-.32,0-.43-.15-.42-.45,0-.52,0-1,0-1.56s0-1,0-1.51c0-.26.1-.4.37-.4A9.49,9.49,0,0,1,52,28,2,2,0,0,1,53,31Z" transform="translate(-0.14 -14.11)"/><path class="cls-2" d="M85.55,37q-3-6.77-6-13.54a.82.82,0,0,0-.88-.58q-3.05,0-6.1,0a.8.8,0,0,0-.85.55c-.86,2-1.74,4-2.62,5.94l-6,13.66c-.32.72-.05,1.14.73,1.14h5.52a.68.68,0,0,0,.73-.5c.4-1,.85-2.08,1.26-3.12a.68.68,0,0,1,.73-.49c1.19,0,2.38,0,3.56,0s2.41,0,3.61,0a.66.66,0,0,1,.73.49c.41,1.06.86,2.11,1.27,3.17a.62.62,0,0,0,.65.45h5.61c.72,0,1-.44.7-1.1Zm-8.64-1.41c-1,0-2,0-3,0-.38,0-.45-.14-.31-.47.67-1.64,1.33-3.28,2-4.92,0-.06.06-.1.15-.25l1.87,4.67C78,35.61,78,35.61,76.91,35.61Z" transform="translate(-0.14 -14.11)"/><path class="cls-2" d="M148.75,39.13c-2.49,0-5,0-7.47,0-.47,0-.63-.15-.61-.62,0-.68,0-1.37,0-2.05s0-.67.68-.67h6.89c.7,0,.94-.24.94-.94,0-1,0-2,0-2.93S149,30.73,148,30.73h-6.64c-.69,0-.69,0-.69-.67,0-.39,0-.78,0-1.17,0-.94-.12-.91.89-.91h7c.77,0,1-.26,1-1q0-1.52,0-3c0-.76-.27-1-1-1H134.67c-.79,0-1,.22-1,1v9.62q0,4.86,0,9.72c0,.65.24.92.86.92H149c.6,0,.86-.27.86-.87,0-1,0-2.05,0-3.08S149.68,39.13,148.75,39.13Z" transform="translate(-0.14 -14.11)"/><path class="cls-2" d="M109.77,37.56c0-.78-.48-1.06-1.14-.66a12.24,12.24,0,0,1-4.05,1.64,8.17,8.17,0,0,1-4.57-.2A4.91,4.91,0,0,1,96.52,34a4.82,4.82,0,0,1,3-4.92,8.21,8.21,0,0,1,6-.32,14.28,14.28,0,0,1,3.12,1.51.65.65,0,0,0,1-.59c0-.81,0-1.63,0-2.44s0-1.5,0-2.25a.74.74,0,0,0-.63-.87c-.75-.21-1.49-.47-2.24-.67a17.75,17.75,0,0,0-9.92-.15,9.9,9.9,0,0,0-6.82,6,11.69,11.69,0,0,0-.65,5.62,10,10,0,0,0,6.13,8.46,13.49,13.49,0,0,0,5.52,1.08,17.34,17.34,0,0,0,8.18-1.72.81.81,0,0,0,.52-.83C109.75,40.45,109.77,39,109.77,37.56Z" transform="translate(-0.14 -14.11)"/><path class="cls-2" d="M129.05,38.35h-7.43c-.78,0-.78,0-.79-.76q0-6.86,0-13.73c0-.7-.24-.94-.94-.94h-5.08c-.76,0-1,.23-1,1q0,4.81,0,9.62t0,9.77c0,.63.25.89.89.89h14.51c.64,0,.89-.26.89-.89,0-1.3,0-2.61,0-3.91C130.13,38.54,129.93,38.35,129.05,38.35Z" transform="translate(-0.14 -14.11)"/><path class="cls-2" d="M36,22.91H31c-.82,0-1,.22-1,1v9.57q0,4.83,0,9.67c0,.76.23,1,1,1H36c.7,0,1-.28,1-1q0-9.67,0-19.33C37,23.19,36.69,22.91,36,22.91Z" transform="translate(-0.14 -14.11)"/><circle class="cls-2" cx="33.17" cy="3.57" r="3.57"/></svg>